<svg width="106" height="24" viewBox="0 0 106 24" fill="none" xmlns="http://www.w3.org/2000/svg">
<path d="M20.2 20.456L20.968 21.592V21.736C20.136 22.088 19.2667 22.3867 18.36 22.632C17.4533 22.8667 16.5253 23.0427 15.576 23.16C14.6373 23.288 13.688 23.352 12.728 23.352C10.8933 23.352 9.21867 23.1067 7.704 22.616C6.18933 22.1147 4.888 21.384 3.8 20.424C2.712 19.464 1.87467 18.296 1.288 16.92C0.701333 15.5333 0.408 13.9547 0.408 12.184C0.408 9.90133 0.914667 7.912 1.928 6.216C2.952 4.50933 4.40267 3.18667 6.28 2.248C8.168 1.30933 10.4133 0.839998 13.016 0.839998C13.8907 0.839998 14.7067 0.893332 15.464 0.999998C16.232 1.10667 17.0427 1.272 17.896 1.496L16.536 1.704L18.616 0.199999H18.968L20.088 7.88L19.368 8.04L16.152 2.52L18.024 4.376C17.1493 3.68267 16.2533 3.16 15.336 2.808C14.4293 2.456 13.416 2.28 12.296 2.28C11.016 2.28 9.86933 2.46667 8.856 2.84C7.84267 3.20267 6.984 3.75733 6.28 4.504C5.576 5.24 5.03733 6.168 4.664 7.288C4.30133 8.39733 4.12 9.69867 4.12 11.192C4.12 13.5387 4.504 15.512 5.272 17.112C6.05067 18.712 7.096 19.9173 8.408 20.728C9.73067 21.5387 11.2187 21.944 12.872 21.944C13.5227 21.944 14.1573 21.8907 14.776 21.784C15.4053 21.6667 15.9813 21.5013 16.504 21.288C17.0267 21.064 17.4533 20.8027 17.784 20.504L16.728 22.296V14.744L13.768 13.864V13.24H22.296V13.864L20.2 14.664V20.456ZM32.5223 13.832L32.6983 14.904C31.5036 15.2133 30.5329 15.5227 29.7863 15.832C29.0396 16.1307 28.4583 16.44 28.0423 16.76C27.6369 17.08 27.3543 17.4213 27.1943 17.784C27.0449 18.136 26.9703 18.5253 26.9703 18.952C26.9703 19.7093 27.1729 20.28 27.5783 20.664C27.9943 21.048 28.5063 21.24 29.1143 21.24C29.5836 21.24 30.0049 21.128 30.3783 20.904C30.7623 20.6693 31.0663 20.3547 31.2903 19.96C31.5143 19.5653 31.6263 19.1227 31.6263 18.632V12.376C31.6263 11.576 31.4183 10.9467 31.0023 10.488C30.5969 10.0293 29.9409 9.8 29.0343 9.8C28.6609 9.8 28.2663 9.84267 27.8503 9.928C27.4343 10.0133 27.0556 10.136 26.7143 10.296L27.4663 9.48C27.4236 9.90667 27.3649 10.296 27.2903 10.648C27.2263 11 27.1516 11.3093 27.0663 11.576C26.9809 11.832 26.8743 12.0293 26.7463 12.168C26.5863 12.3493 26.3623 12.4933 26.0743 12.6C25.7969 12.696 25.5143 12.744 25.2263 12.744C24.8316 12.744 24.5223 12.664 24.2983 12.504C24.0849 12.344 23.9783 12.1253 23.9783 11.848C23.9783 11.4533 24.1649 11.0533 24.5383 10.648C24.9116 10.232 25.4076 9.85333 26.0263 9.512C26.6449 9.16 27.3329 8.87733 28.0903 8.664C28.8476 8.45067 29.6103 8.344 30.3783 8.344C31.4556 8.344 32.3196 8.50933 32.9703 8.84C33.6209 9.16 34.0903 9.624 34.3783 10.232C34.6663 10.84 34.8103 11.5653 34.8103 12.408V20.12C34.8103 20.4293 34.8583 20.6907 34.9543 20.904C35.0503 21.1067 35.1836 21.256 35.3543 21.352C35.5356 21.448 35.7543 21.496 36.0103 21.496C36.2663 21.496 36.5383 21.4533 36.8263 21.368C37.1143 21.272 37.4023 21.1387 37.6903 20.968V21.704C37.1249 22.2907 36.5596 22.712 35.9943 22.968C35.4396 23.2133 34.8956 23.336 34.3623 23.336C33.7649 23.336 33.2636 23.208 32.8583 22.952C32.4636 22.696 32.1703 22.328 31.9783 21.848C31.7863 21.3573 31.6849 20.7813 31.6743 20.12L31.7863 20.04C31.6156 20.712 31.3329 21.2987 30.9383 21.8C30.5543 22.2907 30.0903 22.6747 29.5463 22.952C29.0023 23.2187 28.4103 23.352 27.7703 23.352C26.6076 23.352 25.6529 23.0373 24.9063 22.408C24.1596 21.768 23.7863 20.8507 23.7863 19.656C23.7863 19.0373 23.9036 18.4773 24.1383 17.976C24.3836 17.4747 24.8156 17 25.4343 16.552C26.0636 16.104 26.9489 15.6613 28.0903 15.224C29.2423 14.7867 30.7196 14.3227 32.5223 13.832ZM43.8278 8.248C44.5318 8.248 45.1558 8.31733 45.6998 8.456C46.2438 8.584 46.8358 8.79733 47.4758 9.096L47.7798 13.048H47.0598L45.2358 9.048L46.4198 10.408C45.9824 10.0347 45.5611 9.76267 45.1558 9.592C44.7611 9.42133 44.3184 9.336 43.8278 9.336C42.9958 9.336 42.3504 9.512 41.8918 9.864C41.4331 10.2053 41.2038 10.696 41.2038 11.336C41.2038 11.8053 41.3211 12.2 41.5558 12.52C41.7904 12.84 42.1531 13.1333 42.6438 13.4C43.1344 13.6667 43.7584 13.9493 44.5158 14.248C45.0918 14.4613 45.6091 14.7067 46.0678 14.984C46.5264 15.2613 46.9158 15.5813 47.2358 15.944C47.5558 16.296 47.8011 16.7067 47.9718 17.176C48.1531 17.6453 48.2438 18.184 48.2438 18.792C48.2438 19.752 47.9984 20.5733 47.5078 21.256C47.0171 21.9387 46.3504 22.4613 45.5078 22.824C44.6758 23.176 43.7264 23.352 42.6598 23.352C41.9451 23.352 41.2944 23.2933 40.7078 23.176C40.1211 23.0587 39.5664 22.8827 39.0438 22.648L38.3238 18.44H39.0918L41.4438 22.76L39.7158 21.592C40.0784 21.784 40.4091 21.9333 40.7078 22.04C41.0064 22.136 41.2891 22.2053 41.5558 22.248C41.8331 22.28 42.1051 22.296 42.3718 22.296C43.3424 22.296 44.1318 22.0933 44.7398 21.688C45.3478 21.272 45.6518 20.648 45.6518 19.816C45.6518 19.4107 45.5664 19.064 45.3958 18.776C45.2251 18.488 44.9798 18.232 44.6598 18.008C44.3398 17.7733 43.9558 17.5547 43.5078 17.352C43.0704 17.1387 42.5798 16.9253 42.0358 16.712C41.3211 16.424 40.7184 16.088 40.2278 15.704C39.7371 15.32 39.3638 14.8613 39.1078 14.328C38.8624 13.784 38.7398 13.144 38.7398 12.408C38.7398 11.5227 38.9638 10.776 39.4118 10.168C39.8704 9.54933 40.4838 9.07467 41.2518 8.744C42.0304 8.41333 42.8891 8.248 43.8278 8.248ZM56.0815 2.056H59.6335V21.56L62.1775 22.392V23H53.5375V22.392L56.0815 21.56V2.056ZM66.3695 2.68H49.2495L50.9615 2.312L48.3375 7.512L47.6015 7.368L48.3535 0.0559998H48.7055L51.1855 1.48L49.6175 1.192H66.0015L64.5775 1.48L67.0415 0.0559998H67.4095L68.1615 7.368L67.4255 7.512L64.8015 2.312L66.3695 2.68ZM87.001 9.816L84.953 9.256V8.6H90.185V9.256L88.441 9.816L84.281 23.272H82.921L77.929 11.752L78.745 11.608L73.993 23.272H72.633L68.265 9.992L66.313 9.256V8.6H73.625V9.256L71.593 9.896L74.777 19.976L74.057 20.168L78.649 8.312H79.913L84.857 19.928L84.121 20.168L87.001 9.816ZM97.8335 22.136C98.6015 22.136 99.2735 21.928 99.8495 21.512C100.426 21.096 100.874 20.4507 101.194 19.576C101.514 18.7013 101.674 17.576 101.674 16.2C101.674 14.728 101.514 13.496 101.194 12.504C100.884 11.5013 100.436 10.744 99.8495 10.232C99.2735 9.72 98.5695 9.464 97.7375 9.464C96.9695 9.464 96.2975 9.672 95.7215 10.088C95.1455 10.504 94.6975 11.1547 94.3775 12.04C94.0682 12.9147 93.9135 14.04 93.9135 15.416C93.9135 16.8773 94.0682 18.1093 94.3775 19.112C94.6868 20.104 95.1348 20.856 95.7215 21.368C96.3082 21.88 97.0122 22.136 97.8335 22.136ZM97.7055 23.352C96.2762 23.352 95.0122 23.0373 93.9135 22.408C92.8255 21.7787 91.9722 20.9093 91.3535 19.8C90.7455 18.68 90.4415 17.3893 90.4415 15.928C90.4415 14.4453 90.7615 13.128 91.4015 11.976C92.0522 10.8133 92.9375 9.90133 94.0575 9.24C95.1775 8.57867 96.4468 8.248 97.8655 8.248C99.3055 8.248 100.57 8.56267 101.658 9.192C102.756 9.82133 103.61 10.696 104.218 11.816C104.826 12.9253 105.13 14.2107 105.13 15.672C105.13 17.1653 104.804 18.4933 104.154 19.656C103.503 20.808 102.618 21.7147 101.498 22.376C100.388 23.0267 99.1242 23.352 97.7055 23.352Z" fill="#426B1F"/>
</svg>
